<?xml version="1.0" encoding="utf-8"?>
<!-- Generator: Adobe Illustrator 23.0.1, SVG Export Plug-In . SVG Version: 6.00 Build 0)  -->
<svg version="1.1" xmlns="http://www.w3.org/2000/svg" xmlns:xlink="http://www.w3.org/1999/xlink" x="0px" y="0px"
	 viewBox="0 0 332.9 332.9" style="enable-background:new 0 0 332.9 332.9;" xml:space="preserve">
<style type="text/css">
	.st0{fill:url(#SVGID_1_);}
	.st1{fill:none;}
	.st2{opacity:0.33;fill:url(#SVGID_2_);}
	.st3{fill:#FFFFFF;}
</style>
<g id="Background">
	<radialGradient id="SVGID_1_" cx="278.3321" cy="-36.1113" r="476.2013" gradientUnits="userSpaceOnUse">
		<stop  offset="0.1145" style="stop-color:#FFC000"/>
		<stop  offset="0.5559" style="stop-color:#FFB477"/>
		<stop  offset="1" style="stop-color:#F98E71"/>
	</radialGradient>
	<path class="st0" d="M243.9,332.9H89c-49.2,0-89-39.8-89-89V89C0,39.8,39.8,0,89,0h154.9c49.2,0,89,39.8,89,89v154.9
		C332.9,293.1,293.1,332.9,243.9,332.9z"/>
</g>
<g id="Shadow_Blend">
	<g>
		<path class="st1" d="M199.9,332.9h0.5c-0.1-0.5-0.2-0.9-0.2-1.5C200.1,331.9,200,332.4,199.9,332.9z"/>
		<path class="st1" d="M200.7,332.9h0.2c0-0.2-0.1-0.5-0.1-0.7C200.8,332.4,200.8,332.7,200.7,332.9z"/>
		<path class="st1" d="M199.4,330.7c-0.1,0.6-0.2,1.3-0.3,1.9c-0.1-0.7-0.3-1.6-0.4-2.6c-0.1,0.6-0.2,1.3-0.3,1.9
			c-0.1-0.7-0.3-1.6-0.4-2.6c-0.1,0.6-0.2,1.3-0.3,1.9c-0.1-0.7-0.3-1.6-0.4-2.6c-0.1,0.6-0.2,1.3-0.3,1.9c-0.1-0.7-0.3-1.6-0.4-2.6
			c-0.1,0.6-0.2,1.3-0.3,1.9c-0.1-0.7-0.3-1.6-0.4-2.6c-0.1,0.6-0.2,1.3-0.3,1.9c-0.1-0.7-0.3-1.6-0.4-2.6c-0.1,0.6-0.2,1.3-0.3,1.9
			c-0.1-0.7-0.3-1.6-0.4-2.6c-0.1,0.6-0.2,1.3-0.3,1.9c-0.1-0.7-0.3-1.6-0.4-2.6c-0.1,0.6-0.2,1.3-0.3,1.9c-0.1-0.7-0.3-1.6-0.4-2.6
			c-0.1,0.6-0.2,1.3-0.3,1.9c-0.1-0.7-0.3-1.6-0.4-2.6c-0.1,0.6-0.2,1.3-0.3,1.9c-0.1-0.7-0.3-1.6-0.4-2.6c-0.1,0.6-0.2,1.3-0.3,1.9
			c-0.1-0.7-0.3-1.6-0.4-2.6c-0.1,0.6-0.2,1.3-0.3,1.9c-0.1-0.7-0.3-1.6-0.4-2.6c-0.1,0.6-0.2,1.3-0.3,1.9c-0.1-0.7-0.3-1.6-0.4-2.6
			c-0.1,0.6-0.2,1.3-0.3,1.9c-0.1-0.7-0.3-1.6-0.4-2.6c-0.1,0.6-0.2,1.3-0.3,1.9c-0.1-0.7-0.3-1.6-0.4-2.6c-0.1,0.6-0.2,1.3-0.3,1.9
			c-0.1-0.7-0.3-1.6-0.4-2.6c-0.1,0.6-0.2,1.3-0.3,1.9c-0.1-0.7-0.3-1.6-0.4-2.6c-0.1,0.6-0.2,1.3-0.3,1.9c-0.1-0.7-0.3-1.6-0.4-2.6
			c-0.1,0.6-0.2,1.3-0.3,1.9c-0.1-0.7-0.3-1.6-0.4-2.6c-0.1,0.6-0.2,1.3-0.3,1.9c-0.1-0.7-0.3-1.6-0.4-2.6c-0.1,0.6-0.2,1.3-0.3,1.9
			c-0.1-0.7-0.3-1.6-0.4-2.6c-0.1,0.6-0.2,1.3-0.3,1.9c-0.1-0.7-0.3-1.6-0.4-2.6c-0.1,0.6-0.2,1.3-0.3,1.9c-0.1-0.7-0.3-1.6-0.4-2.6
			c-0.1,0.6-0.2,1.3-0.3,1.9c-0.1-0.7-0.3-1.6-0.4-2.6c-0.1,0.6-0.2,1.3-0.3,1.9c-0.1-0.7-0.3-1.6-0.4-2.6c-0.1,0.6-0.2,1.3-0.3,1.9
			c-0.1-0.7-0.3-1.6-0.4-2.6c-0.1,0.6-0.2,1.3-0.3,1.9c-0.1-0.7-0.3-1.6-0.4-2.6c-0.1,0.6-0.2,1.3-0.3,1.9c-0.1-0.7-0.3-1.6-0.4-2.6
			c-0.1,0.6-0.2,1.3-0.3,1.9c-0.1-0.7-0.3-1.6-0.4-2.6c-0.1,0.6-0.2,1.3-0.3,1.9c-0.1-0.7-0.3-1.6-0.4-2.6c-0.1,0.6-0.2,1.3-0.3,1.9
			c-0.1-0.7-0.3-1.6-0.4-2.6c-0.1,0.6-0.2,1.3-0.3,1.9c-0.1-0.7-0.3-1.6-0.4-2.6c-0.1,0.6-0.2,1.3-0.3,1.9c-0.1-0.7-0.3-1.6-0.4-2.6
			c-0.1,0.6-0.2,1.3-0.3,1.9c-0.1-0.7-0.3-1.6-0.4-2.6c-0.1,0.6-0.2,1.3-0.3,1.9c-0.1-0.7-0.3-1.6-0.4-2.6c-0.1,0.6-0.2,1.3-0.3,1.9
			c-0.1-0.7-0.3-1.6-0.4-2.6c-0.1,0.6-0.2,1.3-0.3,1.9c-0.1-0.7-0.3-1.6-0.4-2.6c-0.1,0.6-0.2,1.3-0.3,1.9c-0.1-0.7-0.3-1.6-0.4-2.6
			c-0.1,0.6-0.2,1.3-0.3,1.9c-0.1-0.7-0.3-1.6-0.4-2.6c-0.1,0.6-0.2,1.3-0.3,1.9c-0.1-0.7-0.3-1.6-0.4-2.6c-0.1,0.6-0.2,1.3-0.3,1.9
			c-0.1-0.7-0.3-1.6-0.4-2.6c-0.1,0.6-0.2,1.3-0.3,1.9c-0.1-0.7-0.3-1.6-0.4-2.6c-0.1,0.6-0.2,1.3-0.3,1.9c-0.1-0.7-0.3-1.6-0.4-2.6
			c-0.1,0.6-0.2,1.3-0.3,1.9c-0.1-0.7-0.3-1.6-0.4-2.6c-0.1,0.6-0.2,1.3-0.3,1.9c-0.1-0.7-0.3-1.6-0.4-2.6c-0.1,0.6-0.2,1.3-0.3,1.9
			c-0.5-3.2-1.5-9-2.5-15.6c-0.2-0.2-0.3-0.3-0.4-0.5c-0.3-0.2-0.5-0.5-0.7-0.7c-0.3-0.2-0.5-0.5-0.7-0.7c-0.3-0.2-0.5-0.5-0.7-0.7
			c-0.3-0.2-0.5-0.5-0.7-0.7c-0.3-0.2-0.5-0.5-0.7-0.7c-0.3-0.2-0.5-0.5-0.7-0.8c-0.3-0.2-0.5-0.5-0.7-0.7c-0.3-0.2-0.5-0.5-0.7-0.8
			c-0.3-0.2-0.5-0.5-0.7-0.7c-0.3-0.2-0.5-0.5-0.7-0.8c-0.3-0.2-0.5-0.5-0.7-0.7c-0.3-0.2-0.5-0.5-0.7-0.7c-0.3-0.2-0.5-0.5-0.7-0.7
			c-0.3-0.2-0.5-0.5-0.7-0.7c-0.3-0.2-0.5-0.5-0.7-0.7c-0.3-0.2-0.5-0.5-0.7-0.7c-0.3-0.2-0.5-0.5-0.7-0.7c-0.3-0.2-0.5-0.5-0.7-0.8
			c-0.3-0.2-0.5-0.5-0.7-0.7c-0.3-0.2-0.5-0.5-0.7-0.8c-0.3-0.2-0.5-0.5-0.7-0.7c-0.3-0.2-0.5-0.5-0.7-0.7c-0.3-0.2-0.5-0.5-0.7-0.7
			c-0.3-0.2-0.5-0.5-0.7-0.7c-0.3-0.2-0.5-0.5-0.7-0.7c-0.3-0.2-0.5-0.5-0.7-0.7c-0.3-0.2-0.5-0.5-0.7-0.7c-0.3-0.2-0.5-0.5-0.7-0.7
			c-0.3-0.2-0.5-0.5-0.7-0.7c-0.3-0.2-0.5-0.5-0.7-0.8c-0.3-0.2-0.5-0.5-0.7-0.7c-0.3-0.2-0.5-0.5-0.7-0.8c-0.3-0.2-0.5-0.5-0.7-0.7
			c-0.3-0.2-0.5-0.5-0.7-0.7c-0.3-0.2-0.5-0.5-0.7-0.7c-0.3-0.2-0.5-0.5-0.7-0.7c-0.3-0.2-0.5-0.5-0.7-0.7c-0.3-0.2-0.5-0.5-0.7-0.7
			c-0.3-0.2-0.5-0.5-0.7-0.7c-0.3-0.2-0.5-0.5-0.7-0.8c-0.3-0.2-0.5-0.5-0.7-0.7c-0.3-0.2-0.5-0.5-0.7-0.8c-0.3-0.2-0.5-0.5-0.7-0.7
			c-0.3-0.2-0.5-0.5-0.7-0.8c-0.3-0.2-0.5-0.5-0.7-0.7c-0.3-0.2-0.5-0.5-0.7-0.7c-0.3-0.2-0.5-0.5-0.7-0.7c-0.3-0.2-0.5-0.5-0.7-0.7
			c-0.3-0.2-0.5-0.5-0.7-0.8c-0.3-0.2-0.5-0.5-0.7-0.7c-0.3-0.2-0.5-0.5-0.7-0.7c-0.3-0.2-0.5-0.5-0.7-0.8c-0.3-0.2-0.5-0.5-0.7-0.7
			c-0.3-0.2-0.5-0.5-0.7-0.7c-0.3-0.2-0.5-0.5-0.7-0.7c-0.3-0.2-0.5-0.5-0.7-0.8c-0.3-0.2-0.5-0.5-0.7-0.7c-0.3-0.2-0.5-0.5-0.7-0.7
			c-0.3-0.2-0.5-0.5-0.7-0.7c-0.3-0.2-0.5-0.5-0.7-0.7c-0.3-0.2-0.5-0.5-0.7-0.8c-0.3-0.2-0.5-0.5-0.7-0.7c-0.3-0.2-0.5-0.5-0.7-0.7
			c-0.3-0.2-0.5-0.5-0.7-0.8c-0.3-0.2-0.5-0.5-0.7-0.7c-0.3-0.2-0.5-0.5-0.7-0.7c-0.3-0.2-0.5-0.5-0.7-0.7c-0.3-0.2-0.5-0.5-0.7-0.7
			c-0.3-0.2-0.5-0.5-0.7-0.8c-0.3-0.2-0.5-0.5-0.7-0.7c-0.3-0.2-0.5-0.5-0.7-0.7c-0.3-0.2-0.5-0.5-0.7-0.7c-0.3-0.2-0.5-0.5-0.7-0.8
			c-0.3-0.2-0.5-0.5-0.7-0.7c-0.3-0.2-0.5-0.5-0.7-0.7c-0.3-0.2-0.5-0.5-0.7-0.8c-0.3-0.2-0.5-0.5-0.7-0.7c-0.3-0.2-0.5-0.5-0.7-0.7
			c-0.3-0.2-0.5-0.5-0.7-0.7c-0.3-0.2-0.5-0.5-0.7-0.7c-0.3-0.2-0.5-0.5-0.7-0.8c-0.3-0.2-0.5-0.5-0.7-0.7c-0.3-0.2-0.5-0.5-0.7-0.7
			c-0.3-0.2-0.5-0.5-0.7-0.7c-0.3-0.2-0.5-0.5-0.7-0.7c-0.3-0.2-0.5-0.5-0.7-0.7c-0.3-0.2-0.5-0.5-0.7-0.7c-0.3-0.2-0.5-0.5-0.7-0.8
			c-0.3-0.2-0.5-0.5-0.7-0.7c-0.3-0.2-0.5-0.5-0.7-0.7c-0.3-0.2-0.5-0.5-0.7-0.7c-0.3-0.2-0.5-0.5-0.7-0.7c-0.3-0.2-0.5-0.5-0.7-0.8
			c-0.3-0.2-0.5-0.5-0.7-0.7c-0.3-0.2-0.5-0.5-0.7-0.7c-0.3-0.2-0.5-0.5-0.7-0.7c-0.3-0.2-0.5-0.5-0.7-0.7c-0.3-0.2-0.5-0.5-0.7-0.7
			c-0.3-0.2-0.5-0.5-0.7-0.7c-0.3-0.2-0.5-0.5-0.7-0.8c-0.3-0.2-0.5-0.5-0.7-0.7c-0.3-0.2-0.5-0.5-0.7-0.7c-0.3-0.2-0.5-0.5-0.7-0.7
			c-0.3-0.2-0.5-0.5-0.7-0.7c-0.3-0.2-0.5-0.5-0.7-0.8c-0.3-0.2-0.5-0.5-0.7-0.7c-0.3-0.2-0.5-0.5-0.7-0.7c-0.3-0.2-0.5-0.5-0.7-0.7
			c-0.3-0.2-0.5-0.5-0.7-0.7c-0.3-0.2-0.5-0.5-0.7-0.7c-0.3-0.2-0.5-0.5-0.7-0.7c-0.3-0.2-0.5-0.5-0.7-0.8c-0.3-0.2-0.5-0.5-0.7-0.7
			c-0.3-0.2-0.5-0.5-0.7-0.7c-0.3-0.2-0.5-0.5-0.7-0.7c-0.3-0.2-0.5-0.5-0.7-0.7c-0.3-0.2-0.5-0.5-0.7-0.8c-0.3-0.2-0.5-0.5-0.7-0.7
			c-0.3-0.2-0.5-0.5-0.7-0.7c-0.3-0.2-0.5-0.5-0.7-0.7c-0.3-0.2-0.5-0.5-0.7-0.7c-0.3-0.2-0.5-0.5-0.7-0.7c-0.3-0.2-0.5-0.5-0.7-0.7
			c-0.3-0.2-0.5-0.5-0.7-0.8c-0.3-0.2-0.5-0.5-0.7-0.7c-0.3-0.2-0.5-0.5-0.7-0.7c-0.3-0.2-0.5-0.5-0.7-0.7c-0.3-0.2-0.5-0.5-0.7-0.7
			c-0.3-0.2-0.5-0.5-0.7-0.8c-0.3-0.2-0.5-0.5-0.7-0.7c-0.3-0.2-0.5-0.5-0.7-0.7c-0.3-0.2-0.5-0.5-0.7-0.8c-0.3-0.2-0.5-0.5-0.7-0.7
			c-0.3-0.2-0.5-0.5-0.7-0.7c-0.3-0.2-0.5-0.5-0.7-0.7c-0.3-0.2-0.5-0.5-0.7-0.7c-0.3-0.2-0.5-0.5-0.7-0.7c-0.3-0.2-0.5-0.5-0.7-0.7
			c-0.3-0.2-0.5-0.5-0.7-0.8c-0.3-0.2-0.5-0.5-0.7-0.7c-0.3-0.2-0.5-0.5-0.7-0.8c-0.3-0.2-0.5-0.5-0.7-0.7c-0.3-0.2-0.5-0.5-0.7-0.7
			c-0.3-0.2-0.5-0.5-0.7-0.7c-0.3-0.2-0.5-0.5-0.7-0.7c-0.3-0.2-0.5-0.5-0.7-0.7c-0.3-0.2-0.5-0.5-0.7-0.7c-0.3-0.2-0.5-0.5-0.7-0.7
			c-0.3-0.2-0.5-0.5-0.7-0.8c-0.3-0.2-0.5-0.5-0.7-0.7c-0.3-0.2-0.5-0.5-0.7-0.8c-0.3-0.2-0.5-0.5-0.7-0.7c-0.3-0.2-0.5-0.5-0.7-0.8
			c-0.3-0.2-0.5-0.5-0.7-0.7c-0.3-0.2-0.5-0.5-0.7-0.7c-0.3-0.2-0.5-0.5-0.7-0.7c-0.3-0.2-0.5-0.5-0.7-0.7c-0.3-0.2-0.5-0.5-0.7-0.7
			c-0.3-0.2-0.5-0.5-0.7-0.7c-0.3-0.2-0.5-0.5-0.7-0.7c-0.3-0.2-0.5-0.5-0.7-0.8c-0.3-0.2-0.5-0.5-0.7-0.7c-0.3-0.2-0.5-0.5-0.7-0.8
			c-0.3-0.2-0.5-0.5-0.7-0.7c-0.3-0.2-0.5-0.5-0.7-0.7c-0.3-0.2-0.5-0.5-0.7-0.7c-0.3-0.2-0.5-0.5-0.7-0.7c-0.3-0.2-0.5-0.5-0.7-0.7
			c-0.3-0.2-0.5-0.5-0.7-0.7c-0.3-0.2-0.5-0.5-0.7-0.7c-0.3-0.2-0.5-0.5-0.7-0.7c-6.6-6,4.4-14.5,4.4-14.4c0,0.2,18.4-15,71.2-19.1
			c-0.2-0.2-0.4-0.4-0.5-0.6c-0.3-0.2-0.5-0.5-0.7-0.7c-0.3-0.2-0.5-0.5-0.7-0.7c-0.3-0.2-0.5-0.5-0.7-0.7c-0.3-0.2-0.5-0.5-0.7-0.7
			c-0.3-0.2-0.5-0.5-0.7-0.7c-0.3-0.2-0.5-0.5-0.7-0.7c-0.3-0.2-0.5-0.5-0.7-0.7c-0.3-0.2-0.5-0.5-0.7-0.8c-0.8-0.6-1.2-1.5-1.2-2.5
			V104c0-1.8,1.4-3.1,3.1-3.1h49.5c-0.1-0.1-0.3-0.3-0.4-0.5c-0.3-0.2-0.5-0.4-0.7-0.7c-0.3-0.2-0.5-0.4-0.7-0.7
			c-0.3-0.2-0.5-0.4-0.7-0.7c-0.3-0.2-0.5-0.4-0.7-0.7c-0.6-0.4-1-1-1-1.7v0c-0.1-0.1-0.2-0.2-0.3-0.4c-0.3-0.2-0.5-0.5-0.7-0.7
			c-0.3-0.2-0.5-0.5-0.7-0.8c-0.3-0.2-0.5-0.5-0.7-0.7c-0.3-0.2-0.5-0.5-0.7-0.7c-0.3-0.2-0.5-0.5-0.7-0.7c-0.3-0.2-0.5-0.5-0.7-0.8
			c-0.3-0.2-0.5-0.5-0.7-0.7c-0.3-0.2-0.5-0.5-0.7-0.7c-0.3-0.2-0.5-0.5-0.7-0.8c-0.3-0.2-0.5-0.5-0.7-0.7c-0.3-0.2-0.5-0.5-0.7-0.7
			c-0.3-0.2-0.5-0.5-0.7-0.7c-0.3-0.2-0.5-0.5-0.7-0.7c-0.3-0.2-0.5-0.5-0.7-0.8c-0.3-0.2-0.5-0.5-0.7-0.7c-0.3-0.2-0.5-0.5-0.7-0.7
			c-0.3-0.2-0.5-0.5-0.7-0.7c-0.3-0.2-0.5-0.5-0.7-0.7c-0.3-0.2-0.5-0.5-0.7-0.7c-0.3-0.2-0.5-0.5-0.7-0.7c-0.3-0.2-0.5-0.5-0.7-0.7
			c-0.3-0.2-0.5-0.5-0.7-0.7c-0.3-0.2-0.5-0.5-0.7-0.7c-0.3-0.2-0.5-0.5-0.7-0.7c-0.3-0.2-0.5-0.5-0.7-0.7c-0.3-0.2-0.5-0.5-0.7-0.8
			c-0.3-0.2-0.5-0.5-0.7-0.7c-0.3-0.2-0.5-0.5-0.7-0.7c-0.3-0.2-0.5-0.5-0.7-0.7c-0.3-0.2-0.5-0.5-0.7-0.7c-0.3-0.2-0.5-0.5-0.7-0.7
			c-2-1.8-3.3-4.7-3.3-8V50c0-5.4,3.7-10,7.8-10h56c1.9,0,3.5,0.9,4.8,2.4c0.3,0.2,0.5,0.5,0.7,0.7c0.3,0.2,0.5,0.5,0.7,0.7
			c0.3,0.2,0.5,0.5,0.7,0.7c0.3,0.2,0.5,0.5,0.7,0.7c0.3,0.2,0.5,0.5,0.7,0.7c0.3,0.2,0.5,0.5,0.7,0.7c0.3,0.2,0.5,0.5,0.7,0.7
			c0.3,0.2,0.5,0.5,0.7,0.7c0.3,0.2,0.5,0.5,0.7,0.7c0.3,0.2,0.5,0.5,0.7,0.7c0.3,0.2,0.5,0.5,0.7,0.7c0.3,0.2,0.5,0.5,0.7,0.7
			c0.3,0.2,0.5,0.5,0.7,0.7c0.3,0.2,0.5,0.5,0.7,0.7c0.3,0.2,0.5,0.5,0.7,0.7c0.3,0.2,0.5,0.5,0.7,0.7c0.3,0.2,0.5,0.5,0.7,0.7
			c0.3,0.2,0.5,0.5,0.7,0.7c0.3,0.2,0.5,0.5,0.7,0.7c0.3,0.2,0.5,0.5,0.7,0.7c0.3,0.2,0.5,0.5,0.7,0.7c0.3,0.2,0.5,0.5,0.7,0.7
			c0.3,0.2,0.5,0.5,0.7,0.7c0.3,0.2,0.5,0.5,0.7,0.7c0.3,0.2,0.5,0.5,0.7,0.8c0.3,0.2,0.5,0.5,0.7,0.7c0.3,0.2,0.5,0.5,0.7,0.7
			c0.3,0.2,0.5,0.5,0.7,0.7c0.3,0.2,0.5,0.5,0.7,0.7c0.3,0.2,0.5,0.5,0.7,0.7c0.3,0.2,0.5,0.5,0.7,0.7c0.3,0.2,0.5,0.5,0.7,0.7
			c0.3,0.2,0.5,0.5,0.7,0.7c0.3,0.2,0.5,0.5,0.7,0.7c0.3,0.2,0.5,0.5,0.7,0.7c0.3,0.2,0.5,0.5,0.7,0.7c0.3,0.2,0.5,0.5,0.7,0.8
			c0.3,0.2,0.5,0.5,0.7,0.7c0.3,0.2,0.5,0.5,0.7,0.7c0.3,0.2,0.5,0.5,0.7,0.7c0.3,0.2,0.5,0.5,0.7,0.7c0.3,0.2,0.5,0.5,0.7,0.7
			c0.3,0.2,0.5,0.5,0.7,0.7c0.3,0.2,0.5,0.5,0.7,0.7c0.3,0.2,0.5,0.5,0.7,0.7c0.3,0.2,0.5,0.5,0.7,0.7c0.3,0.2,0.5,0.5,0.7,0.7
			c0.3,0.2,0.5,0.5,0.7,0.7c0.3,0.2,0.5,0.5,0.7,0.8c0.3,0.2,0.5,0.5,0.7,0.7c0.3,0.2,0.5,0.5,0.7,0.7c0.3,0.2,0.5,0.5,0.7,0.7
			c0.3,0.2,0.5,0.5,0.7,0.7c0.3,0.2,0.5,0.5,0.7,0.7c0.3,0.2,0.5,0.5,0.7,0.7c0.3,0.2,0.5,0.5,0.7,0.7c0.3,0.2,0.5,0.5,0.7,0.7
			c0.3,0.2,0.5,0.5,0.7,0.7c0.3,0.2,0.5,0.5,0.7,0.7c0.3,0.2,0.5,0.5,0.7,0.7c0.3,0.2,0.5,0.5,0.7,0.8c0.3,0.2,0.5,0.5,0.7,0.7
			c0.3,0.2,0.5,0.5,0.7,0.7c0.3,0.2,0.5,0.5,0.7,0.7c0.3,0.2,0.5,0.5,0.7,0.7c0.3,0.2,0.5,0.5,0.7,0.7c0.3,0.2,0.5,0.5,0.7,0.7
			c0.3,0.2,0.5,0.5,0.7,0.7c0.3,0.2,0.5,0.5,0.7,0.7c0.3,0.2,0.5,0.5,0.7,0.7c0.3,0.2,0.5,0.5,0.7,0.7c0.3,0.2,0.5,0.5,0.7,0.7
			c0.3,0.2,0.5,0.5,0.7,0.8c0.3,0.2,0.5,0.5,0.7,0.7c0.3,0.2,0.5,0.5,0.7,0.7c0.3,0.2,0.5,0.5,0.7,0.7c0.3,0.2,0.5,0.5,0.7,0.7
			c0.3,0.2,0.5,0.5,0.7,0.7c0.3,0.2,0.5,0.5,0.7,0.7c0.3,0.2,0.5,0.5,0.7,0.7c0.3,0.2,0.5,0.5,0.7,0.7c0.3,0.2,0.5,0.5,0.7,0.7
			c0.3,0.2,0.5,0.5,0.7,0.7c0.3,0.2,0.5,0.5,0.7,0.7c0.3,0.2,0.5,0.5,0.7,0.7c0.3,0.2,0.5,0.5,0.7,0.7c0.3,0.2,0.5,0.5,0.7,0.7
			c0.3,0.2,0.5,0.5,0.7,0.7c0.3,0.2,0.5,0.5,0.7,0.7c0.3,0.2,0.5,0.5,0.7,0.7c0.3,0.2,0.5,0.5,0.7,0.7c0.3,0.2,0.5,0.5,0.7,0.7
			c0.3,0.2,0.5,0.5,0.7,0.7c0.3,0.2,0.5,0.5,0.7,0.7c0.3,0.2,0.5,0.5,0.7,0.7c0.3,0.2,0.5,0.5,0.7,0.7c0.3,0.2,0.5,0.5,0.7,0.7
			c0.3,0.2,0.5,0.5,0.7,0.7c0.3,0.2,0.5,0.5,0.7,0.7c0.3,0.2,0.5,0.5,0.7,0.7c0.3,0.2,0.5,0.5,0.7,0.7c0.3,0.2,0.5,0.5,0.7,0.7
			c0.3,0.2,0.5,0.5,0.7,0.7c0.3,0.2,0.5,0.5,0.7,0.7c0.3,0.2,0.5,0.5,0.7,0.8c0.3,0.2,0.5,0.5,0.7,0.7c0.3,0.2,0.5,0.5,0.7,0.7
			c0.3,0.2,0.5,0.5,0.7,0.7c0.3,0.2,0.5,0.5,0.7,0.7c0.3,0.2,0.5,0.5,0.7,0.7c0.3,0.2,0.5,0.5,0.7,0.7c0.3,0.2,0.5,0.5,0.7,0.7
			c0.3,0.2,0.5,0.5,0.7,0.7c0.3,0.2,0.5,0.5,0.7,0.7c0.3,0.2,0.5,0.5,0.7,0.7c0.3,0.2,0.5,0.5,0.7,0.7c0.3,0.2,0.5,0.5,0.7,0.8
			c0.3,0.2,0.5,0.5,0.7,0.7c0.3,0.2,0.5,0.5,0.7,0.7c0.3,0.2,0.5,0.5,0.7,0.7c0.3,0.2,0.5,0.5,0.7,0.7c0.3,0.2,0.5,0.5,0.7,0.7
			c0.3,0.2,0.5,0.5,0.7,0.7c0.3,0.2,0.5,0.5,0.7,0.7c0.3,0.2,0.5,0.5,0.7,0.7c0.3,0.2,0.5,0.5,0.7,0.7c0.3,0.2,0.5,0.5,0.7,0.7
			c0.3,0.2,0.5,0.5,0.7,0.7c0.3,0.2,0.5,0.5,0.7,0.8c0.3,0.2,0.5,0.5,0.7,0.7c0.3,0.2,0.5,0.5,0.7,0.7c0.3,0.2,0.5,0.5,0.7,0.7
			c0.3,0.2,0.5,0.5,0.7,0.7c0.3,0.2,0.5,0.5,0.7,0.7c0.3,0.2,0.5,0.5,0.7,0.7c0.3,0.2,0.5,0.5,0.7,0.7c0.3,0.2,0.5,0.5,0.7,0.7
			c0.3,0.2,0.5,0.5,0.7,0.7c0.3,0.2,0.5,0.5,0.7,0.7c0.3,0.2,0.5,0.5,0.7,0.7c0.3,0.2,0.5,0.5,0.7,0.8c0.3,0.2,0.5,0.5,0.7,0.7
			c0.3,0.2,0.5,0.5,0.7,0.7c0.3,0.2,0.5,0.5,0.7,0.7c0.3,0.2,0.5,0.5,0.7,0.7c0.3,0.2,0.5,0.5,0.7,0.7c0.3,0.2,0.5,0.5,0.7,0.7
			c0.3,0.2,0.5,0.5,0.7,0.7c0.3,0.2,0.5,0.5,0.7,0.7c0.3,0.2,0.5,0.5,0.7,0.7c0.3,0.2,0.5,0.5,0.7,0.7c0.3,0.2,0.5,0.5,0.7,0.7
			c0.3,0.2,0.5,0.5,0.7,0.8c0.3,0.2,0.5,0.5,0.7,0.7c0.3,0.2,0.5,0.5,0.7,0.7c0.3,0.2,0.5,0.5,0.7,0.7c0.3,0.2,0.5,0.5,0.7,0.7
			c0.3,0.2,0.5,0.5,0.7,0.7c0.3,0.2,0.5,0.5,0.7,0.7c0.3,0.2,0.5,0.5,0.7,0.7c0.3,0.2,0.5,0.5,0.7,0.7c0.3,0.2,0.5,0.5,0.7,0.7
			c0.3,0.2,0.5,0.5,0.7,0.7c0.3,0.2,0.5,0.5,0.7,0.7c0.3,0.2,0.5,0.5,0.7,0.7c0.3,0.2,0.5,0.5,0.7,0.7c0.3,0.2,0.5,0.5,0.7,0.7
			c0.3,0.2,0.5,0.5,0.7,0.7c0.3,0.2,0.5,0.5,0.7,0.7c0.3,0.2,0.5,0.5,0.7,0.7c0.3,0.2,0.5,0.5,0.7,0.7c0.3,0.2,0.5,0.5,0.7,0.7
			c0.3,0.2,0.5,0.5,0.7,0.7c0.3,0.2,0.5,0.5,0.7,0.7c0.3,0.2,0.5,0.5,0.7,0.7c0.3,0.2,0.5,0.5,0.7,0.7c0.3,0.2,0.5,0.5,0.7,0.7
			c0.3,0.2,0.5,0.5,0.7,0.7c0.3,0.2,0.5,0.5,0.7,0.7c0.3,0.2,0.5,0.5,0.7,0.7c0.3,0.2,0.5,0.5,0.7,0.7c0.3,0.2,0.5,0.5,0.7,0.7
			c0.3,0.2,0.5,0.5,0.7,0.7c0.3,0.2,0.5,0.5,0.7,0.7c0.3,0.2,0.5,0.5,0.7,0.7c0.2,0.2,0.4,0.4,0.6,0.6V89c0-49.2-39.8-89-89-89H89
			C39.8,0,0,39.8,0,89v154.9c0,49.2,39.8,89,89,89h110.8C199.7,332.2,199.5,331.5,199.4,330.7z"/>
		<linearGradient id="SVGID_2_" gradientUnits="userSpaceOnUse" x1="283.3913" y1="57.9769" x2="122.8159" y2="305.1453">
			<stop  offset="0" style="stop-color:#FF883A"/>
			<stop  offset="1" style="stop-color:#FF4915"/>
		</linearGradient>
		<path class="st2" d="M331.6,180.4c-0.2-0.3-0.5-0.5-0.7-0.7c-0.2-0.3-0.5-0.5-0.7-0.7c-0.2-0.3-0.5-0.5-0.7-0.7
			c-0.2-0.3-0.5-0.5-0.7-0.7c-0.2-0.3-0.5-0.5-0.7-0.7c-0.2-0.3-0.5-0.5-0.7-0.7c-0.2-0.3-0.5-0.5-0.7-0.7c-0.2-0.3-0.5-0.5-0.7-0.7
			c-0.2-0.3-0.5-0.5-0.7-0.7c-0.2-0.3-0.5-0.5-0.7-0.7c-0.2-0.3-0.5-0.5-0.7-0.7c-0.2-0.3-0.5-0.5-0.7-0.7c-0.2-0.3-0.5-0.5-0.7-0.7
			c-0.2-0.3-0.5-0.5-0.7-0.7c-0.2-0.3-0.5-0.5-0.7-0.7c-0.2-0.3-0.5-0.5-0.7-0.7c-0.2-0.3-0.5-0.5-0.7-0.7c-0.2-0.3-0.5-0.5-0.7-0.7
			c-0.2-0.3-0.5-0.5-0.7-0.7c-0.2-0.3-0.5-0.5-0.7-0.7c-0.2-0.3-0.5-0.5-0.7-0.7c-0.2-0.3-0.5-0.5-0.7-0.7c-0.2-0.3-0.5-0.5-0.7-0.7
			c-0.2-0.3-0.5-0.5-0.7-0.7c-0.2-0.3-0.5-0.5-0.7-0.7c-0.2-0.3-0.5-0.5-0.7-0.7c-0.2-0.3-0.5-0.5-0.7-0.7c-0.2-0.3-0.5-0.5-0.7-0.7
			c-0.2-0.3-0.5-0.5-0.7-0.7c-0.2-0.3-0.5-0.5-0.7-0.7c-0.2-0.3-0.5-0.5-0.7-0.7c-0.2-0.3-0.5-0.5-0.7-0.8c-0.2-0.3-0.5-0.5-0.7-0.7
			c-0.2-0.3-0.5-0.5-0.7-0.7c-0.2-0.3-0.5-0.5-0.7-0.7c-0.2-0.3-0.5-0.5-0.7-0.7c-0.2-0.3-0.5-0.5-0.7-0.7c-0.2-0.3-0.5-0.5-0.7-0.7
			c-0.2-0.3-0.5-0.5-0.7-0.7c-0.2-0.3-0.5-0.5-0.7-0.7c-0.2-0.3-0.5-0.5-0.7-0.7c-0.2-0.3-0.5-0.5-0.7-0.7c-0.2-0.3-0.5-0.5-0.7-0.7
			c-0.2-0.3-0.5-0.5-0.7-0.8c-0.2-0.3-0.5-0.5-0.7-0.7c-0.2-0.3-0.5-0.5-0.7-0.7c-0.2-0.3-0.5-0.5-0.7-0.7c-0.2-0.3-0.5-0.5-0.7-0.7
			c-0.2-0.3-0.5-0.5-0.7-0.7c-0.2-0.3-0.5-0.5-0.7-0.7c-0.2-0.3-0.5-0.5-0.7-0.7c-0.2-0.3-0.5-0.5-0.7-0.7c-0.2-0.3-0.5-0.5-0.7-0.7
			c-0.2-0.3-0.5-0.5-0.7-0.7c-0.2-0.3-0.5-0.5-0.7-0.7c-0.2-0.3-0.5-0.5-0.7-0.8c-0.2-0.3-0.5-0.5-0.7-0.7c-0.2-0.3-0.5-0.5-0.7-0.7
			c-0.2-0.3-0.5-0.5-0.7-0.7c-0.2-0.3-0.5-0.5-0.7-0.7c-0.2-0.3-0.5-0.5-0.7-0.7c-0.2-0.3-0.5-0.5-0.7-0.7c-0.2-0.3-0.5-0.5-0.7-0.7
			c-0.2-0.3-0.5-0.5-0.7-0.7c-0.2-0.3-0.5-0.5-0.7-0.7c-0.2-0.3-0.5-0.5-0.7-0.7c-0.2-0.3-0.5-0.5-0.7-0.7c-0.2-0.3-0.5-0.5-0.7-0.8
			c-0.2-0.3-0.5-0.5-0.7-0.7c-0.2-0.3-0.5-0.5-0.7-0.7c-0.2-0.3-0.5-0.5-0.7-0.7c-0.2-0.3-0.5-0.5-0.7-0.7c-0.2-0.3-0.5-0.5-0.7-0.7
			c-0.2-0.3-0.5-0.5-0.7-0.7c-0.2-0.3-0.5-0.5-0.7-0.7c-0.2-0.3-0.5-0.5-0.7-0.7c-0.2-0.3-0.5-0.5-0.7-0.7c-0.2-0.3-0.5-0.5-0.7-0.7
			c-0.2-0.3-0.5-0.5-0.7-0.7c-0.2-0.3-0.5-0.5-0.7-0.8c-0.2-0.3-0.5-0.5-0.7-0.7c-0.2-0.3-0.5-0.5-0.7-0.7c-0.2-0.3-0.5-0.5-0.7-0.7
			c-0.2-0.3-0.5-0.5-0.7-0.7c-0.2-0.3-0.5-0.5-0.7-0.7c-0.2-0.3-0.5-0.5-0.7-0.7c-0.2-0.3-0.5-0.5-0.7-0.7c-0.2-0.3-0.5-0.5-0.7-0.7
			c-0.2-0.3-0.5-0.5-0.7-0.7c-0.2-0.3-0.5-0.5-0.7-0.7c-0.2-0.3-0.5-0.5-0.7-0.7c-0.2-0.3-0.5-0.5-0.7-0.7c-0.2-0.3-0.5-0.5-0.7-0.7
			c-0.2-0.3-0.5-0.5-0.7-0.7c-0.2-0.3-0.5-0.5-0.7-0.7c-0.2-0.3-0.5-0.5-0.7-0.7c-0.2-0.3-0.5-0.5-0.7-0.7c-0.2-0.3-0.5-0.5-0.7-0.7
			c-0.2-0.3-0.5-0.5-0.7-0.7c-0.2-0.3-0.5-0.5-0.7-0.7c-0.2-0.3-0.5-0.5-0.7-0.7c-0.2-0.3-0.5-0.5-0.7-0.7c-0.2-0.3-0.5-0.5-0.7-0.7
			c-0.2-0.3-0.5-0.5-0.7-0.7c-0.2-0.3-0.5-0.5-0.7-0.7c-0.2-0.3-0.5-0.5-0.7-0.7c-0.2-0.3-0.5-0.5-0.7-0.7c-0.2-0.3-0.5-0.5-0.7-0.7
			c-0.2-0.3-0.5-0.5-0.7-0.7c-0.2-0.3-0.5-0.5-0.7-0.7c-0.2-0.3-0.5-0.5-0.7-0.7c-0.2-0.3-0.5-0.5-0.7-0.8c-0.2-0.3-0.5-0.5-0.7-0.7
			c-0.2-0.3-0.5-0.5-0.7-0.7c-0.2-0.3-0.5-0.5-0.7-0.7c-0.2-0.3-0.5-0.5-0.7-0.7c-0.2-0.3-0.5-0.5-0.7-0.7c-0.2-0.3-0.5-0.5-0.7-0.7
			c-0.2-0.3-0.5-0.5-0.7-0.7c-0.2-0.3-0.5-0.5-0.7-0.7c-0.2-0.3-0.5-0.5-0.7-0.7c-0.2-0.3-0.5-0.5-0.7-0.7c-0.2-0.3-0.5-0.5-0.7-0.7
			c-0.2-0.3-0.5-0.5-0.7-0.8c-0.2-0.3-0.5-0.5-0.7-0.7c-0.2-0.3-0.5-0.5-0.7-0.7c-0.2-0.3-0.5-0.5-0.7-0.7c-0.2-0.3-0.5-0.5-0.7-0.7
			c-0.2-0.3-0.5-0.5-0.7-0.7c-0.2-0.3-0.5-0.5-0.7-0.7c-0.2-0.3-0.5-0.5-0.7-0.7c-0.2-0.3-0.5-0.5-0.7-0.7c-0.2-0.3-0.5-0.5-0.7-0.7
			c-0.2-0.3-0.5-0.5-0.7-0.7c-0.2-0.3-0.5-0.5-0.7-0.7c-0.2-0.3-0.5-0.5-0.7-0.8c-0.2-0.3-0.5-0.5-0.7-0.7c-0.2-0.3-0.5-0.5-0.7-0.7
			c-0.2-0.3-0.5-0.5-0.7-0.7c-0.2-0.3-0.5-0.5-0.7-0.7c-0.2-0.3-0.5-0.5-0.7-0.7c-0.2-0.3-0.5-0.5-0.7-0.7c-0.2-0.3-0.5-0.5-0.7-0.7
			c-0.2-0.3-0.5-0.5-0.7-0.7c-0.2-0.3-0.5-0.5-0.7-0.7c-0.2-0.3-0.5-0.5-0.7-0.7c-0.2-0.3-0.5-0.5-0.7-0.7c-0.2-0.3-0.5-0.5-0.7-0.8
			c-0.2-0.3-0.5-0.5-0.7-0.7c-0.2-0.3-0.5-0.5-0.7-0.7c-0.2-0.3-0.5-0.5-0.7-0.7c-0.2-0.3-0.5-0.5-0.7-0.7c-0.2-0.3-0.5-0.5-0.7-0.7
			c-0.2-0.3-0.5-0.5-0.7-0.7c-0.2-0.3-0.5-0.5-0.7-0.7c-0.2-0.3-0.5-0.5-0.7-0.7c-0.2-0.3-0.5-0.5-0.7-0.7c-0.2-0.3-0.5-0.5-0.7-0.7
			c-0.2-0.3-0.5-0.5-0.7-0.7c-0.2-0.3-0.5-0.5-0.7-0.8c-0.2-0.3-0.5-0.5-0.7-0.7c-0.2-0.3-0.5-0.5-0.7-0.7c-0.2-0.3-0.5-0.5-0.7-0.7
			c-0.2-0.3-0.5-0.5-0.7-0.7c-0.2-0.3-0.5-0.5-0.7-0.7c-0.2-0.3-0.5-0.5-0.7-0.7c-0.2-0.3-0.5-0.5-0.7-0.7c-0.2-0.3-0.5-0.5-0.7-0.7
			c-0.2-0.3-0.5-0.5-0.7-0.7c-0.2-0.3-0.5-0.5-0.7-0.7c-0.2-0.3-0.5-0.5-0.7-0.7c-0.2-0.3-0.5-0.5-0.7-0.7c-0.2-0.3-0.5-0.5-0.7-0.7
			c-0.2-0.3-0.5-0.5-0.7-0.7c-0.2-0.3-0.5-0.5-0.7-0.7c-0.2-0.3-0.5-0.5-0.7-0.7c-0.2-0.3-0.5-0.5-0.7-0.7c-0.2-0.3-0.5-0.5-0.7-0.7
			c-0.2-0.3-0.5-0.5-0.7-0.7c-0.2-0.3-0.5-0.5-0.7-0.7c-0.2-0.3-0.5-0.5-0.7-0.7c-0.2-0.3-0.5-0.5-0.7-0.7c-0.2-0.3-0.5-0.5-0.7-0.7
			c-0.2-0.3-0.5-0.5-0.7-0.7c-1.3-1.5-3-2.4-4.8-2.4h-56c-4.1,0-7.8,4.6-7.8,10v14c0,3.3,1.3,6.2,3.3,8c0.2,0.3,0.5,0.5,0.7,0.7
			c0.2,0.3,0.5,0.5,0.7,0.7c0.2,0.3,0.5,0.5,0.7,0.7c0.2,0.3,0.5,0.5,0.7,0.7c0.2,0.3,0.5,0.5,0.7,0.7c0.2,0.3,0.5,0.5,0.7,0.8
			c0.2,0.3,0.5,0.5,0.7,0.7c0.2,0.3,0.5,0.5,0.7,0.7c0.2,0.3,0.5,0.5,0.7,0.7c0.2,0.3,0.5,0.5,0.7,0.7c0.2,0.3,0.5,0.5,0.7,0.7
			c0.2,0.3,0.5,0.5,0.7,0.7c0.2,0.3,0.5,0.5,0.7,0.7c0.2,0.3,0.5,0.5,0.7,0.7c0.2,0.3,0.5,0.5,0.7,0.7c0.2,0.3,0.5,0.5,0.7,0.7
			c0.2,0.3,0.5,0.5,0.7,0.7c0.2,0.3,0.5,0.5,0.7,0.8c0.2,0.3,0.5,0.5,0.7,0.7c0.2,0.3,0.5,0.5,0.7,0.7c0.2,0.3,0.5,0.5,0.7,0.7
			c0.2,0.3,0.5,0.5,0.7,0.7c0.2,0.3,0.5,0.5,0.7,0.8c0.2,0.3,0.5,0.5,0.7,0.7c0.2,0.3,0.5,0.5,0.7,0.7c0.2,0.3,0.5,0.5,0.7,0.8
			c0.2,0.3,0.5,0.5,0.7,0.7c0.2,0.3,0.5,0.5,0.7,0.7c0.2,0.3,0.5,0.5,0.7,0.7c0.2,0.3,0.5,0.5,0.7,0.8c0.2,0.3,0.5,0.5,0.7,0.7
			c0.1,0.1,0.2,0.3,0.3,0.4v0c0,0.8,0.4,1.4,1,1.7c0.2,0.3,0.4,0.6,0.7,0.7c0.2,0.3,0.4,0.6,0.7,0.7c0.2,0.3,0.4,0.6,0.7,0.7
			c0.2,0.3,0.4,0.6,0.7,0.7c0.1,0.2,0.2,0.3,0.4,0.5h-49.5c-1.7,0-3.1,1.3-3.1,3.1v7.1c0,1,0.5,1.9,1.2,2.5c0.2,0.3,0.4,0.5,0.7,0.8
			c0.2,0.3,0.4,0.5,0.7,0.7c0.2,0.3,0.4,0.5,0.7,0.7c0.2,0.3,0.4,0.5,0.7,0.7c0.2,0.3,0.4,0.5,0.7,0.7c0.2,0.3,0.4,0.5,0.7,0.7
			c0.2,0.3,0.4,0.5,0.7,0.7c0.2,0.3,0.4,0.5,0.7,0.7c0.1,0.2,0.3,0.4,0.5,0.6c-52.7,4.1-71.2,19.4-71.2,19.1c0-0.1-11,8.4-4.4,14.4
			c0.2,0.3,0.5,0.5,0.7,0.7c0.2,0.3,0.5,0.5,0.7,0.7c0.2,0.3,0.5,0.5,0.7,0.7c0.2,0.3,0.5,0.5,0.7,0.7c0.2,0.3,0.5,0.5,0.7,0.7
			c0.2,0.3,0.5,0.5,0.7,0.7c0.2,0.3,0.5,0.5,0.7,0.7c0.2,0.3,0.5,0.5,0.7,0.7c0.2,0.3,0.5,0.5,0.7,0.8c0.2,0.3,0.5,0.5,0.7,0.7
			c0.2,0.3,0.5,0.5,0.7,0.8c0.2,0.3,0.5,0.5,0.7,0.7c0.2,0.3,0.5,0.5,0.7,0.7c0.2,0.3,0.5,0.5,0.7,0.7c0.2,0.3,0.5,0.5,0.7,0.7
			c0.2,0.3,0.5,0.5,0.7,0.7c0.2,0.3,0.5,0.5,0.7,0.7c0.2,0.3,0.5,0.5,0.7,0.7c0.2,0.3,0.5,0.5,0.7,0.8c0.2,0.3,0.5,0.5,0.7,0.7
			c0.2,0.3,0.5,0.5,0.7,0.8c0.2,0.3,0.5,0.5,0.7,0.7c0.2,0.3,0.5,0.5,0.7,0.8c0.2,0.3,0.5,0.5,0.7,0.7c0.2,0.3,0.5,0.5,0.7,0.7
			c0.2,0.3,0.5,0.5,0.7,0.7c0.2,0.3,0.5,0.5,0.7,0.7c0.2,0.3,0.5,0.5,0.7,0.7c0.2,0.3,0.5,0.5,0.7,0.7c0.2,0.3,0.5,0.5,0.7,0.7
			c0.2,0.3,0.5,0.5,0.7,0.8c0.2,0.3,0.5,0.5,0.7,0.7c0.2,0.3,0.5,0.5,0.7,0.8c0.2,0.3,0.5,0.5,0.7,0.7c0.2,0.3,0.5,0.5,0.7,0.7
			c0.2,0.3,0.5,0.5,0.7,0.7c0.2,0.3,0.5,0.5,0.7,0.7c0.2,0.3,0.5,0.5,0.7,0.7c0.2,0.3,0.5,0.5,0.7,0.7c0.2,0.3,0.5,0.5,0.7,0.8
			c0.2,0.3,0.5,0.5,0.7,0.7c0.2,0.3,0.5,0.5,0.7,0.7c0.2,0.3,0.5,0.5,0.7,0.8c0.2,0.3,0.5,0.5,0.7,0.7c0.2,0.3,0.5,0.5,0.7,0.7
			c0.2,0.3,0.5,0.5,0.7,0.7c0.2,0.3,0.5,0.5,0.7,0.7c0.2,0.3,0.5,0.5,0.7,0.8c0.2,0.3,0.5,0.5,0.7,0.7c0.2,0.3,0.5,0.5,0.7,0.7
			c0.2,0.3,0.5,0.5,0.7,0.7c0.2,0.3,0.5,0.5,0.7,0.7c0.2,0.3,0.5,0.5,0.7,0.7c0.2,0.3,0.5,0.5,0.7,0.7c0.2,0.3,0.5,0.5,0.7,0.8
			c0.2,0.3,0.5,0.5,0.7,0.7c0.2,0.3,0.5,0.5,0.7,0.7c0.2,0.3,0.5,0.5,0.7,0.7c0.2,0.3,0.5,0.5,0.7,0.7c0.2,0.3,0.5,0.5,0.7,0.8
			c0.2,0.3,0.5,0.5,0.7,0.7c0.2,0.3,0.5,0.5,0.7,0.7c0.2,0.3,0.5,0.5,0.7,0.7c0.2,0.3,0.5,0.5,0.7,0.7c0.2,0.3,0.5,0.5,0.7,0.7
			c0.2,0.3,0.5,0.5,0.7,0.7c0.2,0.3,0.5,0.5,0.7,0.8c0.2,0.3,0.5,0.5,0.7,0.7c0.2,0.3,0.5,0.5,0.7,0.7c0.2,0.3,0.5,0.5,0.7,0.7
			c0.2,0.3,0.5,0.5,0.7,0.7c0.2,0.3,0.5,0.5,0.7,0.8c0.2,0.3,0.5,0.5,0.7,0.7c0.2,0.3,0.5,0.5,0.7,0.7c0.2,0.3,0.5,0.5,0.7,0.7
			c0.2,0.3,0.5,0.5,0.7,0.7c0.2,0.3,0.5,0.5,0.7,0.7c0.2,0.3,0.5,0.5,0.7,0.7c0.2,0.3,0.5,0.5,0.7,0.8c0.2,0.3,0.5,0.5,0.7,0.7
			c0.2,0.3,0.5,0.5,0.7,0.7c0.2,0.3,0.5,0.5,0.7,0.7c0.2,0.3,0.5,0.5,0.7,0.7c0.2,0.3,0.5,0.5,0.7,0.8c0.2,0.3,0.5,0.5,0.7,0.7
			c0.2,0.3,0.5,0.5,0.7,0.7c0.2,0.3,0.5,0.5,0.7,0.7c0.2,0.3,0.5,0.5,0.7,0.7c0.2,0.3,0.5,0.5,0.7,0.7c0.2,0.3,0.5,0.5,0.7,0.7
			c0.2,0.3,0.5,0.5,0.7,0.8c0.2,0.3,0.5,0.5,0.7,0.7c0.2,0.3,0.5,0.5,0.7,0.7c0.2,0.3,0.5,0.5,0.7,0.7c0.2,0.3,0.5,0.5,0.7,0.7
			c0.2,0.3,0.5,0.5,0.7,0.8c0.2,0.3,0.5,0.5,0.7,0.7c0.2,0.3,0.5,0.5,0.7,0.7c0.2,0.3,0.5,0.5,0.7,0.8c0.2,0.3,0.5,0.5,0.7,0.7
			c0.2,0.3,0.5,0.5,0.7,0.7c0.2,0.3,0.5,0.5,0.7,0.7c0.2,0.3,0.5,0.5,0.7,0.8c0.2,0.3,0.5,0.5,0.7,0.7c0.2,0.3,0.5,0.5,0.7,0.7
			c0.2,0.3,0.5,0.5,0.7,0.7c0.2,0.3,0.5,0.5,0.7,0.7c0.2,0.3,0.5,0.5,0.7,0.8c0.2,0.3,0.5,0.5,0.7,0.7c0.2,0.3,0.5,0.5,0.7,0.7
			c0.2,0.3,0.5,0.5,0.7,0.8c0.2,0.3,0.5,0.5,0.7,0.7c0.2,0.3,0.5,0.5,0.7,0.7c0.2,0.3,0.5,0.5,0.7,0.7c0.2,0.3,0.5,0.5,0.7,0.7
			c0.2,0.3,0.5,0.5,0.7,0.8c0.2,0.3,0.5,0.5,0.7,0.7c0.2,0.3,0.5,0.5,0.7,0.7c0.2,0.3,0.5,0.5,0.7,0.7c0.2,0.3,0.5,0.5,0.7,0.8
			c0.2,0.3,0.5,0.5,0.7,0.7c0.2,0.3,0.5,0.5,0.7,0.7c0.2,0.3,0.5,0.5,0.7,0.8c0.2,0.3,0.5,0.5,0.7,0.7c0.2,0.3,0.5,0.5,0.7,0.7
			c0.2,0.3,0.5,0.5,0.7,0.7c0.2,0.3,0.5,0.5,0.7,0.7c0.2,0.3,0.5,0.5,0.7,0.8c0.2,0.3,0.5,0.5,0.7,0.7c0.2,0.3,0.5,0.5,0.7,0.8
			c0.2,0.3,0.5,0.5,0.7,0.7c0.2,0.3,0.5,0.5,0.7,0.8c0.2,0.3,0.5,0.5,0.7,0.7c0.2,0.3,0.5,0.5,0.7,0.7c0.2,0.3,0.5,0.5,0.7,0.7
			c0.2,0.3,0.5,0.5,0.7,0.7c0.2,0.3,0.5,0.5,0.7,0.7c0.2,0.3,0.5,0.5,0.7,0.7c0.2,0.3,0.5,0.5,0.7,0.7c0.2,0.3,0.5,0.5,0.7,0.8
			c0.2,0.3,0.5,0.5,0.7,0.7c0.2,0.3,0.5,0.5,0.7,0.8c0.2,0.3,0.5,0.5,0.7,0.7c0.2,0.3,0.5,0.5,0.7,0.7c0.2,0.3,0.5,0.5,0.7,0.7
			c0.2,0.3,0.5,0.5,0.7,0.7c0.2,0.3,0.5,0.5,0.7,0.7c0.2,0.3,0.5,0.5,0.7,0.7c0.2,0.3,0.5,0.5,0.7,0.7c0.2,0.3,0.5,0.5,0.7,0.7
			c0.2,0.3,0.5,0.5,0.7,0.7c0.2,0.3,0.5,0.5,0.7,0.8c0.2,0.3,0.5,0.5,0.7,0.7c0.2,0.3,0.5,0.5,0.7,0.8c0.2,0.3,0.5,0.5,0.7,0.7
			c0.2,0.3,0.5,0.5,0.7,0.7c0.2,0.3,0.5,0.5,0.7,0.7c0.2,0.3,0.5,0.5,0.7,0.7c0.2,0.3,0.5,0.5,0.7,0.7c0.2,0.3,0.5,0.5,0.7,0.7
			c0.2,0.3,0.5,0.5,0.7,0.7c0.2,0.3,0.5,0.5,0.7,0.8c0.2,0.3,0.5,0.5,0.7,0.7c0.2,0.3,0.5,0.5,0.7,0.8c0.2,0.3,0.5,0.5,0.7,0.7
			c0.2,0.3,0.5,0.5,0.7,0.8c0.2,0.3,0.5,0.5,0.7,0.7c0.2,0.3,0.5,0.5,0.7,0.7c0.2,0.3,0.5,0.5,0.7,0.7c0.2,0.3,0.5,0.5,0.7,0.7
			c0.2,0.3,0.5,0.5,0.7,0.7c0.1,0.2,0.3,0.3,0.4,0.5c1.1,6.6,2,12.4,2.5,15.6c0.1-0.6,0.2-1.2,0.3-1.9c0.2,1,0.3,1.9,0.4,2.6
			c0.1-0.6,0.2-1.2,0.3-1.9c0.2,1,0.3,1.9,0.4,2.6c0.1-0.6,0.2-1.2,0.3-1.9c0.2,1,0.3,1.9,0.4,2.6c0.1-0.6,0.2-1.2,0.3-1.9
			c0.2,1,0.3,1.9,0.4,2.6c0.1-0.6,0.2-1.2,0.3-1.9c0.2,1,0.3,1.9,0.4,2.6c0.1-0.6,0.2-1.2,0.3-1.9c0.2,1,0.3,1.9,0.4,2.6
			c0.1-0.6,0.2-1.2,0.3-1.9c0.2,1,0.3,1.9,0.4,2.6c0.1-0.6,0.2-1.2,0.3-1.9c0.2,1,0.3,1.9,0.4,2.6c0.1-0.6,0.2-1.2,0.3-1.9
			c0.2,1,0.3,1.9,0.4,2.6c0.1-0.6,0.2-1.2,0.3-1.9c0.2,1,0.3,1.9,0.4,2.6c0.1-0.6,0.2-1.2,0.3-1.9c0.2,1,0.3,1.9,0.4,2.6
			c0.1-0.6,0.2-1.2,0.3-1.9c0.2,1,0.3,1.9,0.4,2.6c0.1-0.6,0.2-1.2,0.3-1.9c0.2,1,0.3,1.9,0.4,2.6c0.1-0.6,0.2-1.2,0.3-1.9
			c0.2,1,0.3,1.9,0.4,2.6c0.1-0.6,0.2-1.2,0.3-1.9c0.2,1,0.3,1.9,0.4,2.6c0.1-0.6,0.2-1.2,0.3-1.9c0.2,1,0.3,1.9,0.4,2.6
			c0.1-0.6,0.2-1.2,0.3-1.9c0.2,1,0.3,1.9,0.4,2.6c0.1-0.6,0.2-1.2,0.3-1.9c0.2,1,0.3,1.9,0.4,2.6c0.1-0.6,0.2-1.2,0.3-1.9
			c0.2,1,0.3,1.9,0.4,2.6c0.1-0.6,0.2-1.2,0.3-1.9c0.2,1,0.3,1.9,0.4,2.6c0.1-0.6,0.2-1.2,0.3-1.9c0.2,1,0.3,1.9,0.4,2.6
			c0.1-0.6,0.2-1.2,0.3-1.9c0.2,1,0.3,1.9,0.4,2.6c0.1-0.6,0.2-1.2,0.3-1.9c0.2,1,0.3,1.9,0.4,2.6c0.1-0.6,0.2-1.2,0.3-1.9
			c0.2,1,0.3,1.9,0.4,2.6c0.1-0.6,0.2-1.2,0.3-1.9c0.2,1,0.3,1.9,0.4,2.6c0.1-0.6,0.2-1.2,0.3-1.9c0.2,1,0.3,1.9,0.4,2.6
			c0.1-0.6,0.2-1.2,0.3-1.9c0.2,1,0.3,1.9,0.4,2.6c0.1-0.6,0.2-1.2,0.3-1.9c0.2,1,0.3,1.9,0.4,2.6c0.1-0.6,0.2-1.2,0.3-1.9
			c0.2,1,0.3,1.9,0.4,2.6c0.1-0.6,0.2-1.2,0.3-1.9c0.2,1,0.3,1.9,0.4,2.6c0.1-0.6,0.2-1.2,0.3-1.9c0.2,1,0.3,1.9,0.4,2.6
			c0.1-0.6,0.2-1.2,0.3-1.9c0.2,1,0.3,1.9,0.4,2.6c0.1-0.6,0.2-1.2,0.3-1.9c0.2,1,0.3,1.9,0.4,2.6c0.1-0.6,0.2-1.2,0.3-1.9
			c0.2,1,0.3,1.9,0.4,2.6c0.1-0.6,0.2-1.2,0.3-1.9c0.2,1,0.3,1.9,0.4,2.6c0.1-0.6,0.2-1.2,0.3-1.9c0.2,1,0.3,1.9,0.4,2.6
			c0.1-0.6,0.2-1.2,0.3-1.9c0.2,1,0.3,1.9,0.4,2.6c0.1-0.6,0.2-1.2,0.3-1.9c0.2,1,0.3,1.9,0.4,2.6c0.1-0.6,0.2-1.2,0.3-1.9
			c0.2,1,0.3,1.9,0.4,2.6c0.1-0.6,0.2-1.2,0.3-1.9c0.2,1,0.3,1.9,0.4,2.6c0.1-0.6,0.2-1.2,0.3-1.9c0.2,1,0.3,1.9,0.4,2.6
			c0.1-0.6,0.2-1.2,0.3-1.9c0.2,1,0.3,1.9,0.4,2.6c0.1-0.6,0.2-1.2,0.3-1.9c0.2,1,0.3,1.9,0.4,2.6c0.1-0.6,0.2-1.2,0.3-1.9
			c0.2,1,0.3,1.9,0.4,2.6c0.1-0.6,0.2-1.2,0.3-1.9c0.2,1,0.3,1.9,0.4,2.6c0.1-0.6,0.2-1.2,0.3-1.9c0.2,1,0.3,1.9,0.4,2.6
			c0.1-0.6,0.2-1.2,0.3-1.9c0.1,0.8,0.3,1.6,0.4,2.2h0.1c0.1-0.5,0.1-1,0.2-1.5c0.1,0.5,0.2,1,0.2,1.5h0.4c0-0.2,0.1-0.5,0.1-0.7
			c0,0.3,0.1,0.5,0.1,0.7h42.9c49.2,0,89-39.8,89-89v-62.1c-0.2-0.2-0.4-0.4-0.6-0.6C332.1,180.9,331.9,180.7,331.6,180.4z"/>
	</g>
</g>
<g id="White_logo">
	<g id="XMLID_1_">
		<g id="XMLID_2_">
			<path id="XMLID_14_" class="st3" d="M201.2,128.8c0-6.3-4.1-11.7-8.7-11.7h-52.7c-4.7,0-9.1,5.2-9.1,11.7v30.3h70.6L201.2,128.8
				L201.2,128.8z"/>
			<path id="XMLID_13_" class="st3" d="M130.6,221c0,10.9,4.3,20,9.1,20h52.7c4.7,0,8.7-9.1,8.7-20v-55.7h-70.6L130.6,221L130.6,221
				z"/>
			<path id="XMLID_12_" class="st3" d="M114.3,163.5"/>
			<path id="XMLID_11_" class="st3" d="M96.2,165.9c-1.5,4.6-1.9,7-1.9,9.6c0,8.1,5.3,14.6,11.9,14.6c5.1,0,8.7-4.1,11.3-9.4
				c2.4-5.6,9.4-23.7,8.5-51.2C126.1,129.6,99.6,156.1,96.2,165.9"/>
			<path id="XMLID_10_" class="st3" d="M118.1,182.6"/>
			<path id="XMLID_9_" class="st3" d="M128.5,117.1c0,0-24.6,42.5-67.1,39.7c-39.2-2.5-16.6-20-16.6-19.9
				C44.8,137.2,66.2,119.5,128.5,117.1z"/>
			<path id="XMLID_8_" class="st3" d="M156.8,240c0,0,6.8,43.2,8.7,54.7c3-20.3,8.4-54.7,8.4-54.7H156.8L156.8,240z"/>
			<path id="XMLID_7_" class="st3" d="M193.8,38.3h-55.7c-4.1,0-7.7,4.6-7.7,9.9v13.9c0,5.5,3.7,9.9,7.7,9.9h55.7
				c4.1,0,7.4-4.4,7.4-9.9V48.1C201.2,42.7,197.9,38.3,193.8,38.3z M153.1,57.7c0,1.9-1.4,3-2.9,3h-7.5c-1.5,0-2.9-1.1-2.9-3v-8
				c0-1.9,1.4-3.3,2.9-3.3h7.5c1.5,0,2.9,1.4,2.9,3.3V57.7z M193.1,57.7c0,1.9-1,3-2.5,3h-7.5c-1.5,0-3.3-1.1-3.3-3v-8
				c0-1.9,1.6-3.3,3.3-3.3h7.5c1.5,0,2.5,1.4,2.5,3.3V57.7z"/>
			<path id="XMLID_6_" class="st3" d="M174.6,93.5c0,1.1-0.9,2-2,2h-14.3c-1.1,0-2-0.9-2-2V78.2c0-1.1,0.9-2,2-2h14.3
				c1.1,0,2,0.9,2,2V93.5z"/>
			<path id="XMLID_5_" class="st3" d="M223.8,108.9c0,1.8-1.4,3-3,3H111.2c-1.8,0-3-1.4-3-3v-7.1c0-1.8,1.4-3,3-3h109.6
				c1.8,0,3,1.4,3,3V108.9z"/>
			<path id="XMLID_4_" class="st3" d="M204.4,117.1c0,0,24.6,42.5,67.1,39.7c39.2-2.5,16.6-20,16.6-19.9
				C288.1,137.2,266.6,119.5,204.4,117.1z"/>
			<path id="XMLID_3_" class="st3" d="M235.4,164.3c1.5,4.6,1.9,7,1.9,9.6c0,8.1-5.3,14.6-11.9,14.6c-5.1,0-8.7-4.1-11.3-9.4
				c-2.4-5.6-9.4-23.7-8.5-51.2C205.5,127.8,232,154.3,235.4,164.3"/>
		</g>
	</g>
</g>
<g id="Text">
</g>
</svg>
