<svg width="600" height="600" xmlns="http://www.w3.org/2000/svg">
 <g>
  <title>Layer 1</title>
  <g>
   <g fill="#61DAFB">
    <path d="m545.29999,300.04999c0,-32.5 -40.70001,-63.3 -103.09998,-82.39999c14.39996,-63.60001 8,-114.2 -20.19998,-130.40001c-6.50003,-3.8 -14.10007,-5.6 -22.40005,-5.6l0,22.3c4.60004,0 8.29999,0.9 11.40012,2.6c13.59988,7.8 19.49991,37.5 14.89987,75.7c-1.09998,9.40001 -2.89993,19.3 -5.09998,29.40001c-19.59998,-4.8 -41,-8.5 -63.49997,-10.90001c-13.50003,-18.5 -27.50003,-35.3 -41.60001,-50c32.60001,-30.3 63.20001,-46.89999 84,-46.89999l0,-22.3c-27.5,0 -63.5,19.6 -99.90002,53.60001c-36.39996,-33.8 -72.39996,-53.2 -99.89996,-53.2l0,22.3c20.69995,0 51.39998,16.5 84,46.60001c-14,14.7 -27.99998,31.39999 -41.30005,49.89999c-22.59995,2.40001 -44,6.10001 -63.59995,11c-2.30002,-10 -4,-19.7 -5.20004,-29c-4.69998,-38.2 1.10004,-67.89999 14.60004,-75.80001c3,-1.8 6.89999,-2.6 11.5,-2.6l0,-22.29999c-8.40002,0 -16,1.8 -22.60001,5.6c-28.10002,16.2 -34.40001,66.7 -19.89999,130.10001c-62.20001,19.2 -102.70001,49.89999 -102.70001,82.29999c0,32.5 40.7,63.30002 103.09998,82.40002c-14.39998,63.59998 -7.99998,114.19998 20.20004,130.39996c6.49997,3.79999 14.09998,5.60004 22.49997,5.60004c27.50003,0 63.50003,-19.60004 99.90002,-53.60001c36.39996,33.79999 72.39996,53.19998 99.89999,53.19998c8.39999,0 16,-1.79999 22.60001,-5.59998c28.10001,-16.20001 34.39999,-66.70001 19.89996,-130.10004c62,-19.09998 102.5,-49.89999 102.5,-82.29999zm-130.19998,-66.7c-3.70004,12.89999 -8.30002,26.2 -13.50003,39.49998c-4.09998,-8 -8.39996,-16 -13.09998,-23.99998c-4.59998,-8 -9.49997,-15.8 -14.39999,-23.40001c14.20001,2.10001 27.90002,4.70001 41,7.90001zm-45.79999,106.49998c-7.80002,13.5 -15.80002,26.30002 -24.10001,38.20001c-14.89999,1.29999 -30,2 -45.19998,2c-15.10001,0 -30.20004,-0.70001 -45.00002,-1.89999c-8.3,-11.89999 -16.40004,-24.60001 -24.20003,-38c-7.59998,-13.10001 -14.49997,-26.39999 -20.79996,-39.80002c6.19998,-13.39999 13.19998,-26.79999 20.69998,-39.89999c7.79999,-13.5 15.79999,-26.29999 24.09999,-38.2c14.90001,-1.3 29.99998,-2 45.20003,-2c15.09998,0 30.19998,0.7 45,1.90001c8.29999,11.89999 16.39999,24.59999 24.19998,38c7.59998,13.10001 14.5,26.39999 20.80002,39.79999c-6.30002,13.39999 -13.20004,26.80002 -20.70001,39.89999zm32.29996,-13c5.40005,13.40002 10,26.80002 13.79999,39.80002c-13.09995,3.19998 -26.89996,5.89999 -41.19995,8c4.89999,-7.70001 9.80002,-15.60001 14.39996,-23.70001c4.60004,-8 8.90002,-16.10001 13,-24.10001zm-101.39996,106.70001c-9.29999,-9.60001 -18.59998,-20.29999 -27.79999,-32c9,0.39999 18.20001,0.70001 27.5,0.70001c9.40002,0 18.70001,-0.20001 27.79999,-0.70001c-9,11.70001 -18.29999,22.39999 -27.5,32zm-74.39999,-58.89999c-14.19998,-2.10001 -27.89999,-4.70001 -41,-7.89999c3.69998,-12.90002 8.29999,-26.20001 13.50003,-39.5c4.09998,8 8.39996,16 13.09998,24c4.69998,8 9.5,15.79999 14.39999,23.39999zm73.89999,-208.10001c9.30002,9.60001 18.60004,20.3 27.79999,32c-9,-0.39999 -18.19995,-0.7 -27.49997,-0.7c-9.39999,0 -18.69998,0.2 -27.80002,0.7c9,-11.7 18.29999,-22.39999 27.5,-32zm-74,58.89999c-4.89999,7.70001 -9.79999,15.60001 -14.39996,23.70001c-4.60004,8 -8.90002,16 -13,24c-5.40002,-13.39999 -10,-26.8 -13.80005,-39.8c13.10004,-3.10001 26.90002,-5.8 41.20001,-7.90001zm-90.49998,125.20001c-35.40001,-15.10001 -58.3,-34.89999 -58.3,-50.60001c0,-15.70001 22.89999,-35.60001 58.3,-50.60001c8.60001,-3.7 18,-7 27.7,-10.09999c5.70001,19.59999 13.19998,39.99998 22.5,60.90001c-9.20001,20.79999 -16.60001,41.09998 -22.20001,60.59998c-9.89998,-3.09998 -19.29997,-6.5 -27.99998,-10.19998zm53.8,142.89999c-13.60001,-7.79999 -19.50003,-37.5 -14.90002,-75.70001c1.10001,-9.39999 2.90002,-19.29999 5.10001,-29.39999c19.59998,4.80002 41,8.5 63.5,10.89999c13.5,18.5 27.5,35.30002 41.60001,50c-32.59999,30.30002 -63.20001,46.90002 -84,46.90002c-4.50003,-0.10001 -8.29999,-1 -11.29999,-2.70001zm237.19998,-76.20001c4.70001,38.20001 -1.10001,67.90002 -14.60004,75.80002c-3,1.80002 -6.89996,2.60001 -11.49997,2.60001c-20.69998,0 -51.39999,-16.5 -84,-46.60001c14,-14.69998 28,-31.39999 41.30002,-49.89999c22.60001,-2.39999 44,-6.10001 63.60001,-11c2.29999,10.10001 4.09998,19.79999 5.19998,29.10001l0,-0.00003zm38.5,-66.69998c-8.60001,3.70001 -18,7 -27.69998,10.10001c-5.70001,-19.60001 -13.20004,-40 -22.50003,-60.90002c9.20001,-20.79999 16.60001,-41.09998 22.20001,-60.59998c9.89996,3.09999 19.30002,6.5 28.09998,10.2c35.40002,15.09999 58.29999,34.90001 58.29999,50.59999c-0.09998,15.70001 -22.99997,35.60001 -58.39996,50.60001zm-264.90002,-268.7z"/>
    <circle r="45.7" cy="300.04999" cx="299.90002"/>
    <path d="m399.5,81.64999z"/>
   </g>
  </g>
 </g>
</svg>