<svg width="430" height="427" xmlns="http://www.w3.org/2000/svg">

 <g>
  <title>background</title>
  <rect fill="none" id="canvas_background" height="402" width="582" y="-1" x="-1"/>
 </g>
 <g>
  <title>Layer 1</title>
  <path fill-rule="evenodd" stroke="#00000000" fill="#e8b730" d="m189.605,15.538c-22.282,3.397 -29.357,4.973 -41.861,9.322c-17.628,6.133 -37.791,16.48 -51.564,26.463c-4.128,2.992 -9.389,6.782 -11.692,8.422c-6.741,4.804 -25.031,23.753 -32.166,33.327c-61.828,82.958 -51.729,194.519 24.071,265.9c2.455,2.312 5.238,4.65 6.184,5.197c0.946,0.547 5.32,3.715 9.719,7.04c106.905,80.814 264.796,32.025 307.99,-95.17c15.361,-45.238 12.672,-104.059 -6.536,-142.924c-1.768,-3.578 -3.215,-6.664 -3.215,-6.858c0,-1.536 -11.692,-21.291 -17.05,-28.81c-11.757,-16.496 -23.445,-28.614 -38.319,-39.726c-2.396,-1.791 -4.924,-3.791 -5.617,-4.445c-12.416,-11.721 -52.883,-29.766 -77.831,-34.706c-16.022,-3.173 -50.236,-4.843 -62.113,-3.032m49.767,4.953c23.896,3.887 38.155,8.305 57.675,17.867c10.895,5.337 11.677,5.823 37.674,23.421c25.643,17.359 58.204,67.933 66.115,102.692c14.134,62.095 1.246,121.182 -37.078,169.994c-5.483,6.984 -27.654,29.302 -29.108,29.302c-0.483,0 -3.908,2.209 -7.612,4.908c-11.106,8.091 -14.106,9.98 -25.805,16.246c-5.915,3.168 -20.496,9.426 -28.838,12.376c-36.801,13.015 -88.257,12.444 -125.581,-1.394c-2.302,-0.853 -5.447,-1.937 -6.988,-2.407c-1.54,-0.471 -8.449,-3.7 -15.352,-7.176c-30.233,-15.223 -51.747,-33.162 -71.759,-59.837c-2.868,-3.822 -11.754,-18.423 -14.109,-23.181c-0.886,-1.79 -1.996,-3.883 -2.466,-4.651c-22.133,-36.102 -26.091,-103.705 -8.884,-151.703c4.897,-13.658 21.749,-44.973 26.492,-49.227c0.285,-0.256 1.763,-2.14 3.284,-4.186c4.992,-6.715 7.221,-9.171 18.785,-20.698c6.288,-6.267 11.869,-11.395 12.403,-11.395c0.533,0 4.203,-2.424 8.154,-5.385c24.506,-18.37 52.533,-29.806 88.114,-35.953c11.776,-2.035 41.277,-1.826 54.884,0.387m-56.279,5.593c-10.878,1.823 -28.733,6.133 -33.023,7.972c-1.535,0.657 -6.327,2.564 -10.649,4.237c-8.864,3.43 -19.434,8.765 -27.026,13.639c-20.742,13.319 -24.149,15.95 -35.628,27.509c-95.393,96.064 -61.83,258.74 63.535,307.954c16.628,6.527 23.095,8.329 40.451,11.269c47.07,7.974 95.615,-2.634 136.661,-29.863c3.016,-2.001 6.784,-4.416 8.372,-5.366c29.612,-17.717 62.66,-69.612 71.17,-111.761c11.224,-55.59 -4.234,-120.452 -37.508,-157.377c-12.115,-13.444 -16.916,-18.441 -21.936,-22.833c-9.609,-8.406 -11.586,-10.02 -12.28,-10.021c-0.358,-0.001 -4.753,-2.738 -9.767,-6.083c-37.823,-25.235 -88.978,-36.548 -132.372,-29.276m38.14,33.503c21.626,2.197 26.478,2.858 31.405,4.278c6.745,1.945 23.982,8.549 27.664,10.6c1.535,0.855 4.787,2.666 7.227,4.024c99.337,55.312 104.987,198.529 10.326,261.726c-18.326,12.235 -45.408,23.552 -56.36,23.552l-3.295,0l-0.618,-10.465c-1.96,-33.206 -2.317,-67.178 -0.717,-68.124c6.903,-4.082 25.187,-9.783 31.374,-9.783c5.31,0 18.824,-6.545 24.658,-11.943l5.691,-5.266l-0.917,-3.721c-1.461,-5.921 -9.312,-32.029 -9.936,-33.038c-0.696,-1.126 0.232,-1.128 18.165,-0.046c7.921,0.478 21.414,1.126 29.984,1.438l15.581,0.569l0,-26.089l0,-26.09l-9.07,0.004c-4.988,0.001 -15.767,0.407 -23.953,0.9c-17.617,1.063 -29.23,1.638 -49.028,2.427l-14.609,0.582l-0.618,-2.654c-1.251,-5.38 -7.052,-14.233 -13.41,-20.467l-6.536,-6.407l0.922,-16.727c1.743,-31.609 2.832,-53.943 2.823,-57.89l-0.009,-3.954l-26.103,0l-26.102,0l0.58,13.721c0.319,7.547 0.972,20.202 1.451,28.124c0.479,7.921 0.871,16.343 0.871,18.715l0,4.312l-5.095,-1.184c-10.259,-2.385 -19.091,-11.244 -19.091,-19.15c0,-0.961 -0.468,-1.747 -1.04,-1.747c-0.732,0 -0.93,3.524 -0.67,11.887c0.492,15.79 2.456,18.63 15.664,22.652c8.077,2.46 9.623,12.903 1.91,12.903c-2.262,0 -10.146,-4.811 -12.143,-7.41c-1.176,-1.531 -5.24,-3.753 -6.862,-3.753c-1.704,0 -1.715,0.092 -0.209,1.756c3.209,3.546 5.211,10.921 5.211,19.196l0,7.909l-14.651,-0.537c-8.058,-0.296 -25.058,-1.138 -37.777,-1.873c-12.719,-0.734 -27.266,-1.335 -32.326,-1.335l-9.2,0l0,26.133l0,26.134l13.256,-0.565c7.291,-0.31 22.786,-1.04 34.434,-1.622c11.648,-0.581 21.451,-0.785 21.783,-0.452c0.333,0.333 -2.041,8.577 -5.276,18.321c-3.475,10.465 -5.537,18.046 -5.039,18.523c0.463,0.444 5.447,3.503 11.075,6.798c5.628,3.295 16.093,9.557 23.256,13.916c7.163,4.359 15.116,8.92 17.674,10.137l4.651,2.212l-0.026,6.977c-0.051,13.499 -1.449,58.187 -1.947,62.214l-0.503,4.075l-5.738,-0.503c-25.815,-2.261 -66.767,-26.653 -87.023,-51.833c-1.852,-2.302 -3.602,-4.395 -3.889,-4.651c-1.09,-0.973 -9.246,-12.824 -9.246,-13.436c0,-0.353 -1.041,-2.007 -2.315,-3.676c-7.793,-10.217 -16.625,-36.255 -19.597,-57.771c-7.193,-52.082 16.479,-109.685 57.726,-140.469c2.047,-1.527 3.93,-3.022 4.186,-3.322c0.256,-0.301 3.396,-2.423 6.977,-4.716c19.746,-12.644 39.676,-20.315 57.914,-22.293c26.311,-2.852 25.891,-2.832 36.505,-1.753m11.778,24.413c-0.331,6.779 -1.062,22.581 -1.625,35.116c-0.562,12.535 -1.201,22.973 -1.419,23.196c-0.799,0.815 -7.804,-6.884 -7.804,-8.578c0,-2.263 -1.734,-1.652 -4.026,1.417l-1.814,2.43l2.461,4.199c6.787,11.583 -3.986,13.384 -13.401,2.24c-2.795,-3.307 -6.592,-6.893 -8.439,-7.969l-3.358,-1.957l-0.62,-9.582c-1.223,-18.894 -2.404,-51.198 -1.903,-52.01c0.282,-0.455 9.97,-0.828 21.531,-0.828l21.019,0l-0.602,12.326m-103.871,94.621c12.534,0.504 26.241,1.185 30.458,1.513l7.668,0.597l0.918,3.407c0.505,1.874 1.541,4.232 2.302,5.24c0.762,1.007 1.392,2.25 1.4,2.762c0.011,0.62 -0.222,0.62 -0.696,0c-0.392,-0.512 -3.07,-3.183 -5.952,-5.935l-5.239,-5.005l-2.809,2c-2.421,1.724 -3.49,4.098 -7.744,17.196l-4.935,15.196l-15.825,0.598c-8.704,0.329 -23.884,0.873 -33.733,1.209l-17.906,0.612l0,-20.756l0,-20.756l14.651,0.603c8.058,0.331 24.907,1.015 37.442,1.519m217.674,18.78l0,20.61l-20.698,-0.705c-11.383,-0.388 -25.053,-0.977 -30.376,-1.308l-9.679,-0.603l-3.222,-10.697c-1.772,-5.884 -3.429,-11.849 -3.683,-13.256c-0.519,-2.884 -1.348,-3.201 -3.04,-1.163c-1.864,2.247 -2.539,1.67 -3.698,-3.16l-1.092,-4.555l-5.86,5.774c-3.463,3.412 -8.659,7.244 -12.702,9.369l-6.843,3.596l1.795,-2.721c2.812,-4.262 4.948,-9.024 6.1,-13.601l1.06,-4.207l7.597,-0.57c4.178,-0.314 19.946,-1.019 35.039,-1.568c15.093,-0.548 28.069,-1.139 28.837,-1.313c0.767,-0.174 5.686,-0.365 10.93,-0.424l9.535,-0.108l0,20.61m-173.982,-2.019c5.356,4.868 10.633,9.688 11.727,10.711c1.094,1.023 4.052,3.744 6.574,6.047c2.522,2.302 8.652,7.918 13.621,12.479l9.037,8.294l0,31.009c0,31.118 -0.391,34.714 -3.268,30.059c-0.323,-0.522 -3.749,-2.45 -7.615,-4.285c-3.865,-1.834 -9.382,-4.699 -12.259,-6.366c-2.877,-1.667 -7.323,-4.185 -9.882,-5.594c-5.568,-3.068 -23.146,-13.107 -33.488,-19.125c-8.853,-5.151 -8.661,-3.951 -3.409,-21.355c2.085,-6.907 5.238,-17.372 7.009,-23.256c1.77,-5.884 3.65,-11.953 4.177,-13.488c0.528,-1.535 1.846,-5.855 2.929,-9.6c2.295,-7.935 0.654,-8.429 14.847,4.47m106.082,20.013c4.11,14.326 8.302,28.672 9.314,31.88c1.013,3.209 1.842,6.627 1.842,7.597c0,4.22 -13.672,11.633 -26.512,14.374c-20.702,4.42 -29.503,8.222 -41.628,17.982l-7.209,5.803l0,-30.495l0,-30.496l2.299,-4.614c4.749,-9.53 14.121,-17.63 28.108,-24.292c10.303,-4.906 18.043,-9.871 22.139,-14.201c3.424,-3.619 2.252,-6.282 11.647,26.462m-47.459,86.334c-0.005,6.749 0.473,23.479 1.063,37.177c0.591,13.698 0.83,25.149 0.533,25.446c-2.228,2.228 -39.832,2.478 -41.948,0.278c-0.594,-0.617 1.308,-63.211 2.039,-67.121l0.649,-3.468l7.675,4.631c10.235,6.175 13.657,6.303 18.037,0.677c4.062,-5.218 10.257,-10.944 11.206,-10.358c0.416,0.257 0.752,5.989 0.746,12.738" id="path"/>
 </g>
</svg>